name D:\school\WTK\thesis\model\3dpredictsim\Results\Batchsim_tmt_linear\Pog_s1_tmt_bCst_d05_k250_ig24_pas.mot
datacolumns 128
datarows 4
range 1.10819987 1.14144587
endheader
time	pelvis_tilt	pelvis_list	pelvis_rotation	pelvis_tx	pelvis_ty	pelvis_tz	hip_flexion_l	hip_adduction_l	hip_rotation_l	hip_flexion_r	hip_adduction_r	hip_rotation_r	knee_angle_l	knee_angle_r	ankle_angle_l	ankle_angle_r	subtalar_angle_l	subtalar_angle_r	tmt_angle_l	tmt_angle_r	mtp_angle_l	mtp_angle_r	lumbar_extension	lumbar_bending	lumbar_rotation	arm_flex_l	arm_add_l	arm_rot_l	arm_flex_r	arm_add_r	arm_rot_r	elbow_flex_l	elbow_flex_r	pro_sup_l	pro_sup_r	glut_med1_l/activation	glut_med2_l/activation	glut_med3_l/activation	glut_min1_l/activation	glut_min2_l/activation	glut_min3_l/activation	semimem_l/activation	semiten_l/activation	bifemlh_l/activation	bifemsh_l/activation	sar_l/activation	add_long_l/activation	add_brev_l/activation	add_mag1_l/activation	add_mag2_l/activation	add_mag3_l/activation	tfl_l/activation	pect_l/activation	grac_l/activation	glut_max1_l/activation	glut_max2_l/activation	glut_max3_l/activation	iliacus_l/activation	psoas_l/activation	quad_fem_l/activation	gem_l/activation	peri_l/activation	rect_fem_l/activation	vas_med_l/activation	vas_int_l/activation	vas_lat_l/activation	med_gas_l/activation	lat_gas_l/activation	soleus_l/activation	tib_post_l/activation	flex_dig_l/activation	flex_hal_l/activation	tib_ant_l/activation	per_brev_l/activation	per_long_l/activation	per_tert_l/activation	ext_dig_l/activation	ext_hal_l/activation	ercspn_l/activation	intobl_l/activation	extobl_l/activation	glut_med1_r/activation	glut_med2_r/activation	glut_med3_r/activation	glut_min1_r/activation	glut_min2_r/activation	glut_min3_r/activation	semimem_r/activation	semiten_r/activation	bifemlh_r/activation	bifemsh_r/activation	sar_r/activation	add_long_r/activation	add_brev_r/activation	add_mag1_r/activation	add_mag2_r/activation	add_mag3_r/activation	tfl_r/activation	pect_r/activation	grac_r/activation	glut_max1_r/activation	glut_max2_r/activation	glut_max3_r/activation	iliacus_r/activation	psoas_r/activation	quad_fem_r/activation	gem_r/activation	peri_r/activation	rect_fem_r/activation	vas_med_r/activation	vas_int_r/activation	vas_lat_r/activation	med_gas_r/activation	lat_gas_r/activation	soleus_r/activation	tib_post_r/activation	flex_dig_r/activation	flex_hal_r/activation	tib_ant_r/activation	per_brev_r/activation	per_long_r/activation	per_tert_r/activation	ext_dig_r/activation	ext_hal_r/activation	ercspn_r/activation	intobl_r/activation	extobl_r/activation	
          1.10819987	         -2.92668189	         -2.45148056	          6.14977028	          1.38524984	          0.85545082	         -0.00360620	        -18.69955465	         -2.06984007	          7.65123928	         32.09124184	          3.12525304	         -3.11275226	         -7.01980261	        -14.95727282	          0.04148477	          6.61822027	         10.73820334	         -3.03661845	          3.97173602	          0.13433290	         19.84197766	         -0.10987033	         -2.20923164	          0.95916342	         -2.00611523	          9.05122911	        -13.46571792	         19.19858032	         -8.92892408	        -13.53116520	          9.70445706	         37.51617353	         12.07278884	         86.51662706	         86.51662706	          0.25816851	          0.09849155	          0.06602902	          0.30870224	          0.19921135	          0.09874576	          0.05000027	          0.05000004	          0.05000003	          0.07684663	          0.10953175	          0.07722548	          0.05000009	          0.05000008	          0.05000019	          0.05000015	          0.32826740	          0.05000190	          0.05000011	          0.05000075	          0.05000046	          0.05000026	          0.42478099	          0.66820261	          0.05000003	          0.05000012	          0.05000005	          0.22985070	          0.09907722	          0.06972569	          0.05584158	          0.31714836	          0.43186758	          0.29563388	          0.27539976	          0.30331780	          0.37812812	          0.05000000	          0.05954650	          0.17197669	          0.05000004	          0.05000000	          0.05000003	          0.05000000	          0.05000000	          0.05000000	          0.05000028	          0.05000014	          0.05000029	          0.05000016	          0.05000018	          0.05000034	          0.05923500	          0.05923500	          0.32178629	          0.05000028	          0.05000018	          0.11668390	          0.18896481	          0.15354952	          0.16417867	          0.11541261	          0.05000033	          0.05006008	          0.06520116	          0.05000046	          0.07017588	          0.11732199	          0.05342336	          0.05940757	          0.23277896	          0.05000510	          0.05193748	          0.05000007	          0.11162742	          0.11907579	          0.09831873	          0.05923497	          0.05583377	          0.05923498	          0.05000003	          0.05000132	          0.05654197	          0.51711880	          0.37580700	          0.22378304	          0.25039698	          0.55839482	          0.25281202	          0.06713384	          0.09768867	          0.09604847	
          1.11928187	         -2.91749092	         -2.55879751	          6.41670897	          1.40216681	          0.85431888	         -0.00337611	        -18.46166456	         -2.39449930	          7.45649941	         31.51602415	          3.55728455	         -2.93502435	         -9.19954696	        -14.99706730	         -0.86171271	          5.97673339	         11.81912814	         -3.54241542	          3.86386520	          0.13883183	         21.10584604	         -0.09770699	         -1.99158090	          1.20184182	         -2.09861150	          8.81636646	        -13.48897072	         19.33204213	        -10.09785191	        -13.52403367	          9.51441987	         38.77102865	         12.03387989	         86.51662706	         86.51662706	          0.21791892	          0.08313629	          0.05573493	          0.26057422	          0.16815343	          0.08335087	          0.05000073	          0.05000011	          0.05000015	          0.06486591	          0.09245532	          0.17414387	          0.11854687	          0.07018072	          0.05000214	          0.05000045	          0.27708910	          0.11538096	          0.06626285	          0.05000049	          0.05000032	          0.05000030	          0.35855576	          0.60036483	          0.06385419	          0.07017504	          0.05923506	          0.19401597	          0.15539249	          0.16376747	          0.16376752	          0.26770352	          0.36453752	          0.24954325	          0.23246376	          0.25602932	          0.31917634	          0.05000000	          0.05026295	          0.14516484	          0.05000002	          0.05000000	          0.05000003	          0.05247208	          0.07017569	          0.05000003	          0.05000001	          0.05000005	          0.05000013	          0.05000005	          0.05000006	          0.05000005	          0.05000001	          0.05000003	          0.27541214	          0.05000004	          0.05923451	          0.09849247	          0.15950447	          0.30550223	          0.19908757	          0.10505988	          0.05000005	          0.05000135	          0.05503608	          0.05000141	          0.05923561	          0.14369418	          0.05000013	          0.05624179	          0.55876399	          0.14381964	          0.13722683	          0.07017570	          0.22065971	          0.22606160	          0.19477351	          0.05000000	          0.05000000	          0.05000000	          0.05000004	          0.05923577	          0.05000013	          0.61091535	          0.31721710	          0.21342211	          0.48454125	          0.60945496	          0.26655331	          0.05666738	          0.08245858	          0.08107409	
          1.13036387	         -2.90394129	         -2.66722375	          6.65400512	          1.41937540	          0.85316334	         -0.00316028	        -18.14047522	         -2.70754857	          7.24724572	         30.78634841	          3.91912259	         -2.67609078	        -11.51519133	        -15.48230232	         -1.93710736	          5.38536953	         12.84254994	         -4.07836568	          3.67183515	         -0.04891302	         22.26918346	         -0.13914717	         -1.75229913	          1.45076114	         -2.17902599	          8.48174761	        -13.51297028	         19.37712444	        -11.27508533	        -13.52271675	          9.37130315	         40.01141635	         12.03484315	         86.51662706	         86.51662706	          0.30906338	          0.07017498	          0.05326861	          0.21994961	          0.14193758	          0.07035611	          0.05000060	          0.05000009	          0.05000009	          0.05475304	          0.07804118	          0.16205140	          0.20470117	          0.05923939	          0.05923488	          0.05505564	          0.23388991	          0.09739298	          0.05593852	          0.05228514	          0.05923385	          0.05923485	          0.30265534	          0.55483262	          0.05923498	          0.05923459	          0.05000007	          0.16376802	          0.13823552	          0.13823556	          0.13823556	          0.22596736	          0.30770450	          0.21063835	          0.19622164	          0.21611325	          0.26941536	          0.05000000	          0.05000009	          0.19876981	          0.05000001	          0.05000001	          0.05000002	          0.06629186	          0.05923499	          0.05000002	          0.31012375	          0.05000006	          0.32239322	          0.05000014	          0.05000010	          0.28911811	          0.08593641	          0.05000036	          0.23336025	          0.05000004	          0.05000012	          0.08313717	          0.19346782	          0.25787315	          0.18705338	          0.15052909	          0.05000015	          0.05923673	          0.14643521	          0.05000006	          0.05000056	          0.12129189	          0.05283075	          0.05000016	          0.47165022	          0.12139755	          0.19364330	          0.05923500	          0.18625790	          0.19081762	          0.16440748	          0.05923501	          0.05923502	          0.05923499	          0.05923497	          0.05000076	          0.05923499	          0.51567095	          0.40794180	          0.21093763	          0.40899921	          0.61300848	          0.22499648	          0.05000004	          0.09096599	          0.06843428	
          1.14144587	         -2.88808636	         -2.77131773	          6.85512954	          1.43667625	          0.85200468	         -0.00292589	        -17.71424114	         -3.00034657	          7.03272803	         29.91947282	          4.23531871	         -2.40312326	        -13.98004046	        -15.96877575	         -3.13822162	          4.97371973	         13.78989595	         -4.62303678	          3.37319312	         -0.06023460	         23.20731644	         -0.18749989	         -1.51177276	          1.69708991	         -2.25013803	          8.07881031	        -13.54339533	         19.35046345	        -12.40873484	        -13.52375352	          9.28963705	         41.21851971	         12.04124713	         86.51662706	         86.51662706	          0.26087909	          0.05923440	          0.05000000	          0.29060914	          0.11980890	          0.05938729	          0.05000045	          0.05000002	          0.05000001	          0.05000002	          0.06587429	          0.17741883	          0.17278744	          0.05000376	          0.05000021	          0.05000020	          0.20936459	          0.08220937	          0.05000005	          0.05000016	          0.05000010	          0.05000007	          0.25547005	          0.49968140	          0.05000001	          0.05000005	          0.05000002	          0.13823586	          0.11668407	          0.11668408	          0.11668408	          0.19073805	          0.25973201	          0.17779890	          0.16562982	          0.18242026	          0.22741234	          0.11866181	          0.15913876	          0.17076105	          0.05000321	          0.18201247	          0.10234413	          0.09151958	          0.05000000	          0.05000000	          0.36152046	          0.32299364	          0.42616474	          0.20999959	          0.22704720	          0.24404347	          0.07253860	          0.11512662	          0.19697836	          0.07337961	          0.05000028	          0.07017573	          0.16330534	          0.21766966	          0.18576077	          0.17406177	          0.05000005	          0.05000160	          0.12508061	          0.24043671	          0.18544100	          0.16888690	          0.05000001	          0.05000002	          0.39811788	          0.10247118	          0.16345358	          0.05000001	          0.15721955	          0.21819858	          0.15397802	          0.05000001	          0.05000002	          0.05000000	          0.05000000	          0.05000009	          0.05000005	          0.64587325	          0.39399709	          0.19815982	          0.66010992	          0.68081577	          0.36515671	          0.08096163	          0.07678402	          0.05776508	
